<svg version="1.1" viewBox="0.0 0.0 960.0 720.0" fill="none" stroke="none" stroke-linecap="square" stroke-miterlimit="10" xmlns:xlink="http://www.w3.org/1999/xlink" xmlns="http://www.w3.org/2000/svg"><clipPath id="p.0"><path d="m0 0l960.0 0l0 720.0l-960.0 0l0 -720.0z" clip-rule="nonzero"/></clipPath><g clip-path="url(#p.0)"><path fill="#000000" fill-opacity="0.0" d="m0 0l960.0 0l0 720.0l-960.0 0z" fill-rule="evenodd"/><defs><linearGradient id="p.1" gradientUnits="userSpaceOnUse" gradientTransform="matrix(26.552034471514087 0.0 0.0 26.552034471514087 0.0 0.0)" spreadMethod="pad" x1="4.39665584215619" y1="0.28221575427912293" x2="4.39655969496468" y2="26.834250225619137"><stop offset="0.0" stop-color="#ffc002"/><stop offset="1.0" stop-color="#795b04"/></linearGradient></defs><path fill="url(#p.1)" d="m116.74016 360.0l0 0c0 -194.68256 164.51244 -352.50394 367.4488 -352.50394q183.72443 0 367.44885 0q0 176.25197 0 352.50394l0 0c0 194.68256 -164.51245 352.50397 -367.44885 352.50397l0 0c-202.93637 0 -367.4488 -157.82141 -367.4488 -352.50397z" fill-rule="evenodd"/><path stroke="#000000" stroke-width="8.0" stroke-linejoin="round" stroke-linecap="butt" d="m116.74016 360.0l0 0c0 -194.68256 164.51244 -352.50394 367.4488 -352.50394q183.72443 0 367.44885 0q0 176.25197 0 352.50394l0 0c0 194.68256 -164.51245 352.50397 -367.44885 352.50397l0 0c-202.93637 0 -367.4488 -157.82141 -367.4488 -352.50397z" fill-rule="evenodd"/><g filter="url(#shadowFilter-p.2)"><use xlink:href="#p.2" transform="matrix(1.0 0.0 0.0 1.0 5.850829437335958 5.4559867638615485)"/></g><defs><filter id="shadowFilter-p.2" filterUnits="userSpaceOnUse"><feGaussianBlur in="SourceAlpha" stdDeviation="11.0" result="blur"/><feComponentTransfer in="blur" color-interpolation-filters="sRGB"><feFuncR type="linear" slope="0" intercept="0.0"/><feFuncG type="linear" slope="0" intercept="0.0"/><feFuncB type="linear" slope="0" intercept="0.0"/><feFuncA type="linear" slope="0.6" intercept="0"/></feComponentTransfer></filter></defs><g id="p.2"><path fill="#000000" fill-opacity="0.0" d="m303.9564 230.64413c8.103668 -6.6698303 35.905975 -30.045639 48.62195 -40.018982c12.716003 -9.973328 19.446045 -13.712677 27.674042 -19.821014c8.227997 -6.1083374 12.967316 -8.226685 21.69397 -16.82901c8.726654 -8.602341 22.064362 -25.871124 30.666046 -34.78495c8.601654 -8.913834 14.834991 -14.646538 20.944 -18.698036c6.1089783 -4.051506 10.598297 -5.3616486 15.709961 -5.610985c5.111664 -0.24933624 9.225342 -0.93385315 14.959991 4.1149826c5.73468 5.0488358 16.206665 21.815033 19.447998 26.17804" fill-rule="evenodd"/><path stroke="#000000" stroke-width="8.0" stroke-linejoin="round" stroke-linecap="butt" d="m303.9564 230.64413c8.103668 -6.6698303 35.905975 -30.045639 48.62195 -40.018982c12.716003 -9.973328 19.446045 -13.712677 27.674042 -19.821014c8.227997 -6.1083374 12.967316 -8.226685 21.69397 -16.82901c8.726654 -8.602341 22.064362 -25.871124 30.666046 -34.78495c8.601654 -8.913834 14.834991 -14.646538 20.944 -18.698036c6.1089783 -4.051506 10.598297 -5.3616486 15.709961 -5.610985c5.111664 -0.24933624 9.225342 -0.93385315 14.959991 4.1149826c5.73468 5.0488358 16.206665 21.815033 19.447998 26.17804" fill-rule="evenodd"/></g><g filter="url(#shadowFilter-p.3)"><use xlink:href="#p.3" transform="matrix(1.0 0.0 0.0 1.0 5.850829437335958 5.4559867638615485)"/></g><defs><filter id="shadowFilter-p.3" filterUnits="userSpaceOnUse"><feGaussianBlur in="SourceAlpha" stdDeviation="11.0" result="blur"/><feComponentTransfer in="blur" color-interpolation-filters="sRGB"><feFuncR type="linear" slope="0" intercept="0.0"/><feFuncG type="linear" slope="0" intercept="0.0"/><feFuncB type="linear" slope="0" intercept="0.0"/><feFuncA type="linear" slope="0.6" intercept="0"/></feComponentTransfer></filter></defs><g id="p.3"><path fill="#000000" fill-opacity="0.0" d="m503.68793 125.41193c5.173828 6.607666 20.695312 24.249466 31.042969 39.645966c10.347656 15.3965 23.251465 39.82985 31.042969 52.733017c7.791504 12.903168 10.407898 18.951294 15.706055 24.685959c5.2981567 5.73468 9.72467 9.348373 16.083008 9.722046c6.3583374 0.3736725 17.080322 -1.8703308 22.066956 -7.4799957c4.9866943 -5.60968 7.666504 -16.329697 7.8530273 -26.17804c0.18652344 -9.848343 -4.739319 -22.62651 -6.7339478 -32.912003c-1.99469 -10.285492 -4.611023 -19.512787 -5.23407 -28.80095c-0.62298584 -9.288147 1.0595093 -20.632492 1.4960327 -26.927994c0.4364624 -6.2955093 2.1203003 -6.85569 1.1229858 -10.845024c-0.9973755 -3.989334 -5.5481567 -8.977303 -7.1069946 -13.090981c-1.5588379 -4.1136703 -2.9318237 -8.474716 -2.2459717 -11.591057c0.68585205 -3.116333 3.4310913 -5.9224854 6.360962 -7.1069794c2.9298096 -1.184494 9.161194 0.7480011 11.218018 0c2.0568237 -0.7480011 -0.6223755 -2.9298325 1.1229858 -4.487999c1.7453613 -1.5581665 6.045532 -4.549515 9.348999 -4.8610153c3.3035278 -0.31150818 7.230713 0.5614853 10.472046 2.9919968c3.241333 2.4305115 6.2333374 10.157883 8.975952 11.591057c2.7426758 1.4331741 3.4285278 -1.7453384 7.4800415 -2.9920044c4.0515137 -1.246666 11.655151 -5.236 16.82898 -4.487999c5.173828 0.7480011 8.541504 9.03817 14.213989 8.975998c5.6724854 -0.062164307 11.156494 -6.1076813 19.820984 -9.349014c8.664551 -3.241333 23.127808 -8.291481 32.166016 -10.098984c9.038147 -1.8075027 14.645874 -1.74337 22.06305 -0.7460327c7.4171753 0.9973297 15.832336 2.8656921 22.440002 6.730034c6.607666 3.8643417 12.842285 8.290169 17.205933 16.456001c4.3636475 8.1658325 7.6671753 23.375816 8.976013 32.538986c1.3088379 9.163162 0.74731445 16.26883 -1.1229858 22.439987c-1.8703003 6.171173 -8.4158325 12.155823 -10.098999 14.58699" fill-rule="evenodd"/><path stroke="#000000" stroke-width="8.0" stroke-linejoin="round" stroke-linecap="butt" d="m503.68793 125.41193c5.173828 6.607666 20.695312 24.249466 31.042969 39.645966c10.347656 15.3965 23.251465 39.82985 31.042969 52.733017c7.791504 12.903168 10.407898 18.951294 15.706055 24.685959c5.2981567 5.73468 9.72467 9.348373 16.083008 9.722046c6.3583374 0.3736725 17.080322 -1.8703308 22.066956 -7.4799957c4.9866943 -5.60968 7.666504 -16.329697 7.8530273 -26.17804c0.18652344 -9.848343 -4.739319 -22.62651 -6.7339478 -32.912003c-1.99469 -10.285492 -4.611023 -19.512787 -5.23407 -28.80095c-0.62298584 -9.288147 1.0595093 -20.632492 1.4960327 -26.927994c0.4364624 -6.2955093 2.1203003 -6.85569 1.1229858 -10.845024c-0.9973755 -3.989334 -5.5481567 -8.977303 -7.1069946 -13.090981c-1.5588379 -4.1136703 -2.9318237 -8.474716 -2.2459717 -11.591057c0.68585205 -3.116333 3.4310913 -5.9224854 6.360962 -7.1069794c2.9298096 -1.184494 9.161194 0.7480011 11.218018 0c2.0568237 -0.7480011 -0.6223755 -2.9298325 1.1229858 -4.487999c1.7453613 -1.5581665 6.045532 -4.549515 9.348999 -4.8610153c3.3035278 -0.31150818 7.230713 0.5614853 10.472046 2.9919968c3.241333 2.4305115 6.2333374 10.157883 8.975952 11.591057c2.7426758 1.4331741 3.4285278 -1.7453384 7.4800415 -2.9920044c4.0515137 -1.246666 11.655151 -5.236 16.82898 -4.487999c5.173828 0.7480011 8.541504 9.03817 14.213989 8.975998c5.6724854 -0.062164307 11.156494 -6.1076813 19.820984 -9.349014c8.664551 -3.241333 23.127808 -8.291481 32.166016 -10.098984c9.038147 -1.8075027 14.645874 -1.74337 22.06305 -0.7460327c7.4171753 0.9973297 15.832336 2.8656921 22.440002 6.730034c6.607666 3.8643417 12.842285 8.290169 17.205933 16.456001c4.3636475 8.1658325 7.6671753 23.375816 8.976013 32.538986c1.3088379 9.163162 0.74731445 16.26883 -1.1229858 22.439987c-1.8703003 6.171173 -8.4158325 12.155823 -10.098999 14.58699" fill-rule="evenodd"/></g><g filter="url(#shadowFilter-p.4)"><use xlink:href="#p.4" transform="matrix(1.0 0.0 0.0 1.0 5.850829437335958 5.4559867638615485)"/></g><defs><filter id="shadowFilter-p.4" filterUnits="userSpaceOnUse"><feGaussianBlur in="SourceAlpha" stdDeviation="11.0" result="blur"/><feComponentTransfer in="blur" color-interpolation-filters="sRGB"><feFuncR type="linear" slope="0" intercept="0.0"/><feFuncG type="linear" slope="0" intercept="0.0"/><feFuncB type="linear" slope="0" intercept="0.0"/><feFuncA type="linear" slope="0.6" intercept="0"/></feComponentTransfer></filter></defs><g id="p.4"><path fill="#000000" fill-opacity="0.0" d="m808.47766 167.31015c-3.5528564 0.7480011 -14.647827 4.1136627 -21.317017 4.4879913c-6.6691895 0.3743286 -12.526855 -0.933197 -18.69806 -2.242035c-6.1711426 -1.3088379 -15.6484375 -7.1691437 -18.328918 -5.610977c-2.680481 1.5581665 6.359619 10.845673 2.2459717 14.959991c-4.1137085 4.114334 -17.952026 8.042801 -26.92804 9.725967c-8.975952 1.6831665 -23.810974 -5.610977 -26.927979 0.37301636c-3.1170044 5.984009 6.3563843 24.061646 8.226013 35.53099c1.86969 11.46933 3.0541992 19.883835 2.9920044 33.285004c-0.06213379 13.401184 -1.9318237 35.279053 -3.3649902 47.12204c-1.4331665 11.843018 -0.9953613 13.401184 -5.23407 23.936005c-4.2386475 10.534821 -8.354248 28.426605 -20.197937 39.27295c-11.843689 10.846313 -39.33252 19.88385 -50.864014 25.805023c-11.531494 5.921173 -15.395203 1.36969 -18.325012 9.722015c-2.9298096 8.352356 -3.991272 23.312347 0.7460327 40.392c4.7373657 17.079681 19.885803 49.805817 27.677979 62.085968c7.7921753 12.280182 13.216003 8.10434 19.074951 11.595001c5.859009 3.4906616 10.843079 5.609009 16.079102 9.348999c5.235962 3.7399902 12.967957 8.852295 15.336914 13.091003c2.3690186 4.2386475 2.2433472 9.348999 -1.1229858 12.341003c-3.366333 2.9920044 -15.895813 3.2426758 -19.074951 5.610962c-3.1791992 2.3683472 2.1190186 6.6672363 0 8.59906c-2.1190186 1.9318848 -5.857727 4.1758423 -12.71405 2.9920044c-6.8563232 -1.1838379 -20.00885 -7.352356 -28.424011 -10.095032c-8.415161 -2.7426758 -16.893127 -4.241272 -22.066956 -6.360962c-5.173828 -2.119629 -6.9191895 -2.430481 -8.976013 -6.3569946c-2.0568237 -3.9265137 -3.427185 -13.025574 -3.3649902 -17.202026c0.06213379 -4.1765137 3.6136475 -3.8676147 3.737976 -7.8569946c0.12438965 -3.9893188 -0.3114624 -8.911194 -2.9919434 -16.07904c-2.680542 -7.1678467 -7.8549805 -17.515503 -13.091003 -26.927979c-5.236023 -9.412506 -13.463379 -25.557648 -18.325012 -29.546997c-4.8616943 -3.9893188 -3.3650513 0.18780518 -10.845032 5.6109924c-7.4799805 5.4231567 -25.121155 18.26416 -34.034973 26.927979c-8.913849 8.663849 -16.0195 18.572388 -19.447998 25.055054c-3.4284973 6.4826965 -4.11499 7.5448303 -1.1229858 13.840973c2.9920044 6.2961426 15.58429 17.516113 19.074951 23.935974c3.4907227 6.419861 3.6765747 11.591064 1.8690186 14.583069c-1.8074951 2.9920044 -8.475342 3.4310913 -12.71402 3.3689575c-4.2386475 -0.062194824 -9.538788 -4.053467 -12.717957 -3.7420044c-3.1791687 0.31152344 -2.9291687 3.9899902 -6.357025 5.611023c-3.427826 1.6209717 -6.7300415 5.8602905 -14.210022 4.11499c-7.480011 -1.7453613 -24.249481 -10.9713745 -30.669983 -14.586975c-6.420471 -3.6156616 -6.668518 -3.3670044 -7.852997 -7.1069946c-1.1845093 -3.7399902 -3.0561523 -8.601013 0.7460327 -15.333008c3.8021545 -6.7320557 15.085632 -15.023499 22.066986 -25.059021c6.9813232 -10.035492 14.273499 -22.438019 19.821014 -35.154022c5.5474854 -12.716003 9.34967 -31.230804 13.463989 -41.141968c4.1143494 -9.911163 8.915161 -12.839691 11.221985 -18.325012c2.3068237 -5.4853516 4.5514526 -11.220673 2.6189575 -14.586975c-1.9324951 -3.366333 -5.985962 -4.7386475 -14.213959 -5.6109924c-8.227997 -0.872345 -22.126526 2.0594482 -35.154022 0.37695312c-13.027527 -1.6825256 -32.476166 -7.4171753 -43.010986 -10.472015c-10.534821 -3.0548096 -13.340973 -8.47995 -20.197968 -7.8569336c-6.8569946 0.62301636 -20.009491 0.5614929 -20.944 11.594971c-0.9345093 11.033508 8.60495 34.846466 15.336945 54.605957c6.7319946 19.759521 17.824402 49.365387 25.055054 63.95108c7.2306824 14.585632 15.461273 16.768127 18.328949 23.562988c2.8676453 6.7948 1.3081665 13.403748 -1.1229858 17.205933c-2.4311523 3.802185 -10.659149 3.4259033 -13.463989 5.6070557c-2.80484 2.1812134 0.5621338 6.295532 -3.3650208 7.4800415c-3.927185 1.1844482 -12.967316 0.6864624 -20.197968 -0.37304688c-7.2306824 -1.0595093 -18.261536 -3.3035278 -23.186035 -5.984009c-4.9244995 -2.680481 -6.6102905 -6.234619 -6.360962 -10.098999c0.24935913 -3.8643188 6.298126 -8.661865 7.856964 -13.087036c1.5588074 -4.425171 2.5561523 -7.2928467 1.4960022 -13.463989c-1.0601807 -6.171173 -4.8649597 -16.082977 -7.856964 -23.562988c-2.9919739 -7.480011 -6.292877 -14.335693 -10.095032 -21.317017c-3.802185 -6.9813232 -9.16449 -16.207336 -12.717987 -20.570984c-3.5534668 -4.3636475 -4.738617 -8.228638 -8.602966 -5.6109924c-3.8643494 2.6176758 -10.157898 12.029541 -14.583069 21.317017c-4.425171 9.287506 -10.097656 25.74353 -11.967987 34.40802c-1.8703308 8.66449 -2.183136 12.280151 0.7460327 17.578949c2.9291687 5.298828 12.091675 9.726013 16.82901 14.213989c4.737335 4.487976 9.911835 8.787537 11.595001 12.71405c1.6831665 3.9265137 0.31149292 8.16449 -1.4960022 10.845032c-1.8075256 2.680481 -5.6090393 4.489929 -9.34903 5.237915c-3.7399902 0.7480469 -9.163818 -1.310791 -13.090973 -0.74993896c-3.9271545 0.56085205 -5.4231567 3.5534668 -10.472015 4.11499c-5.048828 0.5614624 -14.647186 0.18908691 -19.821014 -0.7460327c-5.173828 -0.93518066 -7.5441284 -2.1223145 -11.221954 -4.864929c-3.677826 -2.7426758 -9.162506 -7.290222 -10.845032 -11.591064c-1.6824951 -4.3008423 -0.8710327 -7.4191895 0.7499695 -14.213989c1.6210022 -6.7948 6.4205017 -18.077637 8.976013 -26.554962c2.555481 -8.477356 4.300171 -15.894531 6.3569946 -24.309021c2.0568542 -8.41452 4.3008423 -17.950043 5.984009 -26.17804c1.6831665 -8.227997 3.8656616 -16.083649 4.11499 -23.189972c0.24932861 -7.1063232 -0.5614929 -14.337006 -2.618988 -19.447998c-2.057495 -5.111023 -7.2326355 -7.290863 -9.725952 -11.218048c-2.4933472 -3.9271545 -5.296875 -8.292786 -5.2340393 -12.34494c0.062805176 -4.0521545 2.618988 -7.355652 5.610962 -11.967987c2.9920044 -4.612335 10.034851 -12.091034 12.341034 -15.706055c2.3061829 -3.6149902 1.9324951 -3.0541687 1.4960022 -5.9839783c-0.43649292 -2.92984 -1.8088074 -10.721985 -4.11499 -11.595001c-2.3061523 -0.87298584 -4.7975464 -1.6838074 -9.722046 6.357025c-4.924469 8.0408325 -13.030121 34.15866 -19.824936 41.888c-6.794815 7.7293396 -17.951996 7.5421753 -20.944 4.4880066c-2.9919891 -3.0541687 -0.43649292 -12.403839 2.9920044 -22.813019c3.4284973 -10.40918 12.592316 -27.424713 17.57898 -39.64203c4.986679 -12.217346 9.847702 -24.000153 12.341019 -33.661987c2.4933472 -9.661835 -0.49801636 -16.392517 2.618988 -24.309021c3.1170044 -7.9164734 10.036804 -15.584961 16.082977 -23.189957c6.046173 -7.6049805 16.82837 -18.699997 20.19403 -22.439987" fill-rule="evenodd"/><path stroke="#000000" stroke-width="8.0" stroke-linejoin="round" stroke-linecap="butt" d="m808.47766 167.31015c-3.5528564 0.7480011 -14.647827 4.1136627 -21.317017 4.4879913c-6.6691895 0.3743286 -12.526855 -0.933197 -18.69806 -2.242035c-6.1711426 -1.3088379 -15.6484375 -7.1691437 -18.328918 -5.610977c-2.680481 1.5581665 6.359619 10.845673 2.2459717 14.959991c-4.1137085 4.114334 -17.952026 8.042801 -26.92804 9.725967c-8.975952 1.6831665 -23.810974 -5.610977 -26.927979 0.37301636c-3.1170044 5.984009 6.3563843 24.061646 8.226013 35.53099c1.86969 11.46933 3.0541992 19.883835 2.9920044 33.285004c-0.06213379 13.401184 -1.9318237 35.279053 -3.3649902 47.12204c-1.4331665 11.843018 -0.9953613 13.401184 -5.23407 23.936005c-4.2386475 10.534821 -8.354248 28.426605 -20.197937 39.27295c-11.843689 10.846313 -39.33252 19.88385 -50.864014 25.805023c-11.531494 5.921173 -15.395203 1.36969 -18.325012 9.722015c-2.9298096 8.352356 -3.991272 23.312347 0.7460327 40.392c4.7373657 17.079681 19.885803 49.805817 27.677979 62.085968c7.7921753 12.280182 13.216003 8.10434 19.074951 11.595001c5.859009 3.4906616 10.843079 5.609009 16.079102 9.348999c5.235962 3.7399902 12.967957 8.852295 15.336914 13.091003c2.3690186 4.2386475 2.2433472 9.348999 -1.1229858 12.341003c-3.366333 2.9920044 -15.895813 3.2426758 -19.074951 5.610962c-3.1791992 2.3683472 2.1190186 6.6672363 0 8.59906c-2.1190186 1.9318848 -5.857727 4.1758423 -12.71405 2.9920044c-6.8563232 -1.1838379 -20.00885 -7.352356 -28.424011 -10.095032c-8.415161 -2.7426758 -16.893127 -4.241272 -22.066956 -6.360962c-5.173828 -2.119629 -6.9191895 -2.430481 -8.976013 -6.3569946c-2.0568237 -3.9265137 -3.427185 -13.025574 -3.3649902 -17.202026c0.06213379 -4.1765137 3.6136475 -3.8676147 3.737976 -7.8569946c0.12438965 -3.9893188 -0.3114624 -8.911194 -2.9919434 -16.07904c-2.680542 -7.1678467 -7.8549805 -17.515503 -13.091003 -26.927979c-5.236023 -9.412506 -13.463379 -25.557648 -18.325012 -29.546997c-4.8616943 -3.9893188 -3.3650513 0.18780518 -10.845032 5.6109924c-7.4799805 5.4231567 -25.121155 18.26416 -34.034973 26.927979c-8.913849 8.663849 -16.0195 18.572388 -19.447998 25.055054c-3.4284973 6.4826965 -4.11499 7.5448303 -1.1229858 13.840973c2.9920044 6.2961426 15.58429 17.516113 19.074951 23.935974c3.4907227 6.419861 3.6765747 11.591064 1.8690186 14.583069c-1.8074951 2.9920044 -8.475342 3.4310913 -12.71402 3.3689575c-4.2386475 -0.062194824 -9.538788 -4.053467 -12.717957 -3.7420044c-3.1791687 0.31152344 -2.9291687 3.9899902 -6.357025 5.611023c-3.427826 1.6209717 -6.7300415 5.8602905 -14.210022 4.11499c-7.480011 -1.7453613 -24.249481 -10.9713745 -30.669983 -14.586975c-6.420471 -3.6156616 -6.668518 -3.3670044 -7.852997 -7.1069946c-1.1845093 -3.7399902 -3.0561523 -8.601013 0.7460327 -15.333008c3.8021545 -6.7320557 15.085632 -15.023499 22.066986 -25.059021c6.9813232 -10.035492 14.273499 -22.438019 19.821014 -35.154022c5.5474854 -12.716003 9.34967 -31.230804 13.463989 -41.141968c4.1143494 -9.911163 8.915161 -12.839691 11.221985 -18.325012c2.3068237 -5.4853516 4.5514526 -11.220673 2.6189575 -14.586975c-1.9324951 -3.366333 -5.985962 -4.7386475 -14.213959 -5.6109924c-8.227997 -0.872345 -22.126526 2.0594482 -35.154022 0.37695312c-13.027527 -1.6825256 -32.476166 -7.4171753 -43.010986 -10.472015c-10.534821 -3.0548096 -13.340973 -8.47995 -20.197968 -7.8569336c-6.8569946 0.62301636 -20.009491 0.5614929 -20.944 11.594971c-0.9345093 11.033508 8.60495 34.846466 15.336945 54.605957c6.7319946 19.759521 17.824402 49.365387 25.055054 63.95108c7.2306824 14.585632 15.461273 16.768127 18.328949 23.562988c2.8676453 6.7948 1.3081665 13.403748 -1.1229858 17.205933c-2.4311523 3.802185 -10.659149 3.4259033 -13.463989 5.6070557c-2.80484 2.1812134 0.5621338 6.295532 -3.3650208 7.4800415c-3.927185 1.1844482 -12.967316 0.6864624 -20.197968 -0.37304688c-7.2306824 -1.0595093 -18.261536 -3.3035278 -23.186035 -5.984009c-4.9244995 -2.680481 -6.6102905 -6.234619 -6.360962 -10.098999c0.24935913 -3.8643188 6.298126 -8.661865 7.856964 -13.087036c1.5588074 -4.425171 2.5561523 -7.2928467 1.4960022 -13.463989c-1.0601807 -6.171173 -4.8649597 -16.082977 -7.856964 -23.562988c-2.9919739 -7.480011 -6.292877 -14.335693 -10.095032 -21.317017c-3.802185 -6.9813232 -9.16449 -16.207336 -12.717987 -20.570984c-3.5534668 -4.3636475 -4.738617 -8.228638 -8.602966 -5.6109924c-3.8643494 2.6176758 -10.157898 12.029541 -14.583069 21.317017c-4.425171 9.287506 -10.097656 25.74353 -11.967987 34.40802c-1.8703308 8.66449 -2.183136 12.280151 0.7460327 17.578949c2.9291687 5.298828 12.091675 9.726013 16.82901 14.213989c4.737335 4.487976 9.911835 8.787537 11.595001 12.71405c1.6831665 3.9265137 0.31149292 8.16449 -1.4960022 10.845032c-1.8075256 2.680481 -5.6090393 4.489929 -9.34903 5.237915c-3.7399902 0.7480469 -9.163818 -1.310791 -13.090973 -0.74993896c-3.9271545 0.56085205 -5.4231567 3.5534668 -10.472015 4.11499c-5.048828 0.5614624 -14.647186 0.18908691 -19.821014 -0.7460327c-5.173828 -0.93518066 -7.5441284 -2.1223145 -11.221954 -4.864929c-3.677826 -2.7426758 -9.162506 -7.290222 -10.845032 -11.591064c-1.6824951 -4.3008423 -0.8710327 -7.4191895 0.7499695 -14.213989c1.6210022 -6.7948 6.4205017 -18.077637 8.976013 -26.554962c2.555481 -8.477356 4.300171 -15.894531 6.3569946 -24.309021c2.0568542 -8.41452 4.3008423 -17.950043 5.984009 -26.17804c1.6831665 -8.227997 3.8656616 -16.083649 4.11499 -23.189972c0.24932861 -7.1063232 -0.5614929 -14.337006 -2.618988 -19.447998c-2.057495 -5.111023 -7.2326355 -7.290863 -9.725952 -11.218048c-2.4933472 -3.9271545 -5.296875 -8.292786 -5.2340393 -12.34494c0.062805176 -4.0521545 2.618988 -7.355652 5.610962 -11.967987c2.9920044 -4.612335 10.034851 -12.091034 12.341034 -15.706055c2.3061829 -3.6149902 1.9324951 -3.0541687 1.4960022 -5.9839783c-0.43649292 -2.92984 -1.8088074 -10.721985 -4.11499 -11.595001c-2.3061523 -0.87298584 -4.7975464 -1.6838074 -9.722046 6.357025c-4.924469 8.0408325 -13.030121 34.15866 -19.824936 41.888c-6.794815 7.7293396 -17.951996 7.5421753 -20.944 4.4880066c-2.9919891 -3.0541687 -0.43649292 -12.403839 2.9920044 -22.813019c3.4284973 -10.40918 12.592316 -27.424713 17.57898 -39.64203c4.986679 -12.217346 9.847702 -24.000153 12.341019 -33.661987c2.4933472 -9.661835 -0.49801636 -16.392517 2.618988 -24.309021c3.1170044 -7.9164734 10.036804 -15.584961 16.082977 -23.189957c6.046173 -7.6049805 16.82837 -18.699997 20.19403 -22.439987" fill-rule="evenodd"/></g><path fill="#000000" fill-opacity="0.0" d="m800.82886 166.50354c1.6329956 -1.1781158 3.366455 -2.2710876 4.7443237 -3.7394562" fill-rule="evenodd"/><path stroke="#000000" stroke-width="1.0" stroke-linejoin="round" stroke-linecap="butt" d="m800.82886 166.50354c1.6329956 -1.1781158 3.366455 -2.2710876 4.7443237 -3.7394562" fill-rule="evenodd"/><path fill="#000000" fill-opacity="0.0" d="m805.57306 169.97025c6.1503296 0 12.755615 -12.182892 13.957886 -24.358215" fill-rule="evenodd"/><path stroke="#000000" stroke-width="4.0" stroke-linejoin="round" stroke-linecap="butt" d="m805.57306 169.97025c6.1503296 0 12.755615 -12.182892 13.957886 -24.358215" fill-rule="evenodd"/></g></svg>